<svg preserveAspectRatio="none" width="290" height="120" viewBox="0 0 290 120" xmlns="http://www.w3.org/2000/svg"><title>gs1</title><desc>Created with Sketch.</desc><path d="M214.17 98.716c-1.203-1.321-2.628-3.076-3.853-4.76-.2-.312-.266-.532-.302-.763-.046-.283-.095-.429-.297-.428-.23.002-.391.311-.819.861-1.946 2.414-2.877 4.699-2.877 8.026 0 .428.052.896.16 1.386.18.844-.081 1.414.111 1.654.134.167.37.067.824-.201l7.446-4.399c1.018-.602.198-.711-.393-1.375zm-7.266 9.132c.054.201.172.374 1.045.374.671 0 1.43.042 2.37.666 1.86 1.256 4.38 2.117 7.67 2.117 1.813 0 2.951-.168 3.74-.34.351-.071.554.008.586.069.06.114-.155.365-.586.589-4.26 2.188-7.803 4.8-10.422 7.4-.341.352-.558.452-.694.379-.13-.071-.132-.357-.108-.82.031-.591-.001-1.023-1.226-1.584-4.188-1.954-9.683-6.037-9.683-12.864 0-6.87 7.092-11.889 9.703-13.371 1.783-1.012 2.622-1.814 3.053-2.569.244-.403.469-.683.669-.62.338.105.215.546.855 1.46 1.774 2.503 5.165 6.022 7.317 7.81.774.643 1.342 1.008 2.338 1.145.288.04.545.125.545.283 0 .309-1.262.766-1.979 1.162l-14.254 7.861c-.671.391-.996.643-.939.854zm72.422 11.524c.26 0 .524-.404.677-.86.561-1.658 1.905-3.55 4.148-5.541 1.534-1.363 5.344-4.846 5.344-10.443 0-6.818-5.878-11-7.688-12.451-1.831-1.469-4.159-3.709-4.437-4.541-.202-.604-.519-.722-.739-.686-.22.036-.447.326-.654 1.09-.382 1.412-1.901 2.831-2.908 3.832-1.649 1.639-6.68 5.969-6.68 13.575 0 5.997 5.16 10.901 8.775 12.733 1.198.607 2.781 1.82 3.292 2.424.358.423.521.868.868.868zm2.992-7.635c-.311.573-.585 1.363-1.169.326-.197-.351-1.118-1.328-2.209-1.756 0 0-5.222-1.99-7.191-7.146 0 0-1.591-4.231 1.527-8.634.471-.657 1.077-1.609 1.177-1.995.078-.299.544-.608.764.102.297.962.736 1.161 1.291 1.609 1.035.837 8.064 4.039 8.064 9.389 0 3.455-1.198 6.163-2.253 8.106zm-33.885-12.308c0 .5.359.967 1.157.802 4.486-.925 6.753-2.569 6.753-4.122 0-1.555-2.962-2.872-5.409-2.872-.473 0-.976.085-1.09-.103-.115-.187.097-.383.283-.522 1.949-1.46 4.535-3.746 5.195-5.21.293-.65.066-1.071 1.446-.044 2.409 1.791 6.514 4.41 6.514 6.62 0 2.433-2.746 4.431-8.032 6.664-.483.21-.331.593.346.817.905.28 2.369.998 3.363 2.488 1.262 1.888 3.02 4.786 3.921 6.061.902 1.275 2.161 2.745 5.002 2.853.439.017.68.227.704.307.037.124-.107.254-.533.435-2.35 1-6.034 2.812-8.449 4.164-.284.158-.983.56-1.163.458-.183-.105-.134-.348-.023-.76.32-1.193-.134-2.245-.734-3.269-.507-.862-4.826-8.208-5.667-9.64-.789-1.343-1.694-1.903-2.34-1.903-.733 0-1.243.604-1.243 1.704v7.983c0 1.36.471 1.734 1.014 2.297.422.437.93.71 2.258 1.436.858.515.722.69.24.69l-12.395-.004c-1.159 0-1.088-.253.089-.924.852-.486 1.42-.906 1.828-1.254.478-.408.627-.779.627-2.037v-27.16c0-1.259-.149-1.744-.627-2.151-.408-.348-.637-.512-1.429-1.044-1.125-.756-1.181-1.022-.022-1.022l10.817-.003c.482 0 .619.175-.238.691-.978.608-1.371.87-1.737 1.17-.565.462-.426 1.051-.426 1.019v15.387zm-24.122-15.969c1.323-.574 3.532-1.529 4.821-3.373.394-.564.524-.995.826-.975.317.02.395.318.753.963.743 1.333 1.62 2.55 5.477 3.842 1.372.46.997.993-.511 1.092-3.711.243-7.316.429-11.413-.704-.403-.111-.839-.46.047-.844zm9.936 29.244c0 1.146.151 1.444.692 1.933.452.407.873.66 2.136 1.436.858.515.722.69.239.69l-12.105-.004c-1.16 0-1.089-.253.088-.924.853-.486 1.421-.906 1.83-1.254.477-.408.626-.779.626-2.037v-17.449c0-1.511-.311-1.859-1.062-1.931-.634-.061-2.016-.032-2.586-.021-.57.012-.625-.108-.663-.234-.033-.105.124-.344.535-.553 2.11-1.076 4.229-2.511 5.778-4.284.25-.288.503-.597.682-.597.224 0 .38.166.734.625.828 1.074 2.538 2.527 4.14 3.046.285.092.594.242.58.392-.014.154-.134.26-.54.442-.685.303-1.103.733-1.103 1.946v18.781zm-66.235-44.676c-.415 0-.534-.409-1.343-1.081-5.778-4.751-17.563-13.55-19.155-13.492-.364.014-.708-.126-.362-.379 2.803-1.797 6.901-4.951 8.313-6.917.226-.281.32.3.809.748 3.765 3.424 8.73 7.142 11.79 9.311 1.578 1.083 2.186 1.488 2.903.994.581-.401 1.79-1.57 2.646-2.437 2.677-2.71 4.585-6.123-.637-11.045-3.117-2.939-13.778-11.051-19.435-16.361-5.659-5.31-4.136-12.556.184-15.861 3.374-2.583 10.042-7.921 12.948-10.258 1.051-.845 1.095-1.252 1.477-1.252.391 0 .393.374 1.517 1.252 1.997 1.561 5.824 4.623 10.678 8.178 3.81 2.791 5.891 3.42 6.639 3.457.48.024.714.257.288.563-2.553 1.782-5.7 5.087-7.072 7.695-.33.622-.453-.367-1.749-1.414l-13.549-10.944c-.273-.22-.476-.158-.695.021l-2.404 2.051c-2.821 2.427-3.801 6.04.585 10.435 5.468 5.11 14.398 11.859 19.674 16.464 4.484 3.914 7.335 9.712 1.02 15.6-5.688 5.302-10.095 10.005-13.685 13.462-1.151 1.091-1.034 1.208-1.385 1.208zm14.972 51.683c-5.818-5.054-9.884-6.355-14.698-7.708-1.837-.516-3.547-.017-6.383.438-1.049.154-.933-.087-.384-.421 2.751-1.793 8.329-5.826 10.426-7.746.238-.213.51-.509.512.073.007.717.007 1.516.887 2.056 1.686 1.035 2.513 1.329 4.707 2.183 2.191.853 3.921 1.769 5.459 3.14.467.417.829.817.848 1.436.012.422.201.62.643.181.253-.253.843-.857 1.582-1.552.652-.614 1.853-2.091 1.853-3.579 0-1.243-.773-1.827-1.754-2.813-2.9-2.917-11.759-8.386-14.547-10.231-2.788-1.846-5.444-4.02-5.444-6.33 0-2.454 1.667-4.196 3.288-5.34 1.409-.995 4.601-2.529 6.647-3.517 2.045-.988 4.323-2.711 4.746-3.72.118-.27.183-.369.331-.369.172 0 .237.17.683.702 1.22 1.39 4.8 4.618 7.833 5.722 1.452.529 2.809.486 3.619.415.455-.031.529.008.596.103.085.123-.012.271-.387.525-2.104 1.361-5.106 4.386-6.861 6.363-.164.194-.362.284-.552-.09-.416-.796-1.036-1.557-1.785-2.346-1.323-1.393-4.854-3.538-6.392-4.957-.58-.529-.53-.246-.893.246-.329.411-1.512 1.133-2.416 1.7-.902.568-1.275 1.389-1.275 2.043 0 .78.262 1.302.731 1.663 6.437 4.951 17.212 10.832 20.448 14.036.946.936 1.866 2.152 1.866 3.172 0 .691-.07 1.892-2.408 3.873-2.347 1.991-9.245 7.911-10.607 10.315-.319.546-.437.761-.917.333zm-52.44-26.746c-2.366 2.366-4.118 5.4-4.118 10.167 0 2.862 1.263 4.8 3.376 6.603 1.027.877 2.079 1.82 2.569 2.309.213.214.324.323.467.323.144 0 .267-.093.424-.362.156-.268.555-.887 1.23-1.376.675-.489.844-.596 1.191-.807.62-.378.723-.706.723-2.134v-9.438c0-.666-.23-.898-.686-1.352-.761-.757-2.777-2.924-3.231-3.563-.494-.629-.414-1.546-.804-1.546-.354 0-.499.534-1.14 1.177zm5.861-.868v-6.765c0-1.604-.368-2.124-.918-2.528-.402-.294-1.198-.825-1.428-.981-.898-.609.087-.642.596-.642h10.552c.271 0 .941-.032.334.413-.607.444-1.452 1.079-1.96 1.454-.509.374-.613.668-.613 1.49v25.228c0 1.212-.105 2.486 3.309 3.413.363.099.59.143.615.24.032.12-.128.193-.474.356 0 0-2.14 1.057-3.124 1.873 0 0-1.646 1.284-2.348 2.446-.292.486-.496.798-.648.844-.147.043-.316-.134-.532-.424 0 0-1.191-1.54-2.529-2.39-.723-.46-1.06-.957-1.06-1.855-.006-.483.055-.623-.144-.766-.276-.197-1.104.235-1.464.577-.375.357-3.795 3.675-4.119 3.988-.642.603-.767 1.09-1.11 1.033-.416-.069-.614-.856-1.268-1.43-3.158-2.773-8.78-5.849-8.78-12.289 0-8.14 5.928-12.688 10.51-14.854.677-.32 1.486-1.18 1.672-1.583.187-.403.337-.718.581-.709.244.01.363.118.512.565.148.446.532.864.909 1.31.376.444 2.06 2.273 2.291 2.53.231.259.637.629.637-.546zm-1.877-57.052c.317.218.064.507-.386.919-1.448 1.375-1.642 2.587-1.642 4.999v16.925c0 .797-.15 1.26-.951 1.786-.899.59-2.824 2.009-6.399 2.009-3.521 0-7.218-3.169-9.526-10.386l13.156-20.113 5.748 3.861zm-10.218-29.655c2.229 0 5.393 1.57 7.391 3.397 1.757 1.609 3.145 4.251-.238 9.563l-17.386 26.106c-.49-3.254-.769-7.007-.769-11.305 0-21.431 5.695-27.762 11.003-27.762zm21.162-1.076c-5.026 2.05-7.895 1.363-11.25-.563-3.073-1.764-5.687-3.363-9.734-3.363-9.5 0-22.378 12.118-22.378 32.97 0 21.103 9.946 32.969 20.909 32.969 3.829 0 6.552-1.269 8.666-2.105 2.114-.837 5.019-2.33 7.093-1.585.709.255 1.82.83 2.666 1.506 1.57 1.345 1.531.526 1.202-.154-.288-.595-.497-1.477-.497-2.221v-23.249c0-1.871-.213-3.739 3.262-6.365.422-.319.465-.631-.011-.935-2.591-1.656-8.096-5.456-11.38-8.049l11.98-18.317c.378-.588-.127-.704-.529-.54zm-36.894 84.94c-.473-.927-.903-.687-1.599.167-.831 1.017-4.26 3.267-6.303 4.448-.815.471-.94.581-1.148.581-.303 0-.199-.215-.67-.592-1.08-.937-2.217-2.068-3.267-3.942-.275-.491-.287-.732-.685-.732-.47 0-.597.82-1.711 1.776-1.529 1.313-2.963 2.261-5.122 3.456-.284.158-.722.379-.674.636.041.22.245.386 1.075.375.812-.025 2.247-.145 3.266.695 1.019.841 1.195 1.659 1.195 3.105 0 0 .013 10.812.013 13.123 0 2.751-1.785 3.394-2.357 3.654-.934.426-.626.744-.091.744h11.653c1.012 0 .605-.452-.011-.608-2.62-.657-2.532-3.238-2.532-4.323v-13.689c0-.575.062-.811.471-1.038 2.974-1.706 3.66-2.499 4.016-2.781.933-.74.527.155 1.023.731.456.53 1.289 1.516 1.931 2.045.569.501.505 1.026.505 1.613v14.422c0 1.099.165 1.477.858 1.98 1.286.935 2.573 2.715 2.573 2.715.216.29.448.437.595.392.178-.053.263-.369.723-.906.468-.548 1.285-1.154 2.328-1.878 1.043-.726 2.077-1.374 3.019-1.825.612-.293 1.209-.533 1.174-.709-.045-.233-.66-.222-1.037-.239-3.558-.168-3.669-1.295-3.669-3.134v-13.129c0-.751.103-1.418-.787-2.243-1.471-1.363-4.132-3.642-4.754-4.893zm-32.529 20.394l-3.885 2.765c-.832.672-2.151-.074-2.151-.074-4.422-2.843-1.565-7.146-1.565-7.146 2.475-3.993 7.388-4.131 8.93-4.131.73 0 .175.317.175 1.159v5.411c0 .951-.485 1.307-1.505 2.016zm1.017-10.519c-.867-.177-1.814-.311-2.647-.311-6.308 0-13.75 4.224-13.75 11.551 0 3.077 1.672 5.803 5.158 6.826 1.231.362 1.852 1.078 2.15 1.591.238.409.5.657.67.553.231-.14.258-.496.876-1.086 2.62-2.506 6.528-5.329 7.366-5.972.209-.158.562-.364.668-.291.114.077.015.274-.051.494-.088.292-.094.671-.094 1.513 0 .899.244 1.379.967 1.838 1.336.849 2.6 2.396 2.6 2.396.216.29.493.46.633.398.169-.074.182-.338.475-.825.701-1.162 2.403-2.425 2.403-2.425.985-.816 3.254-1.848 3.254-1.848.346-.163.448-.314.409-.406-.04-.093-.335-.134-.71-.178-3.483-.422-3.334-2.007-3.334-3.22v-14.226c0-1.977-1.182-2.806-2.341-3.26-.871-.342-4.431-1.763-4.431-1.763-1.363-.569-1.543-1.432-1.631-1.849-.088-.416-.338-.437-.676-.181-.455.346-.98.665-1.74 1.155l-8.045 5.191c-.68.452-1.284 1.298.241.774 1.86-.641 3.56-1.009 5.516-1.009 1.955 0 4.319.436 5.816 1.399.465.3.736.671.736 1.244v1.516c0 .592-.077.494-.488.41zm-14.335-6.472c.654-.231.894-.108.301.477 0 0-4.012 4.046-5.516 5.571-.555.562-.827.416-.812-.038.043-1.285-.849-2.076-2.705-3.268-.397-.256-.508.076-.847.294l-1.568.945c-.905.544-.937 1.129-.937 1.926v14.095c0 1.096.083 1.5.627 1.855 0 0 1.355.826 3.156 1.688.952.471.466.574-.024.574l-13.188-.004c-1.129 0-1.233-.151.003-.753 1.001-.487 1.665-.877 2.113-1.186.535-.367.728-.805.728-1.986l-.06-14.197c0-2.511-1.603-3.951-6.082-4.629-.842-.127-.997-.59-.115-.947 0 0 5.029-2.149 6.518-3.851.2-.227.64-.419.955 0 .54.718 1.966 2.136 3.514 3.034.715.414 1.584.729 1.799 1.78.111.541.425.935 1.323.287 0 0 3.938-2.78 4.837-4.223 0 0 .288-.497.759.056 0 0 1.894 2.306 3.339 2.569.925.17 1.365.115 1.88-.067zm-51.901 17.203c-.382-.008-.573-.212-.1-.596l10.497-9.488c.506-.443.601-.929.911-.931.169 0 .259.254.499.384.676.366 1.455.643 2.184.794.532.11.476.428.089.794-.33.311-.378.738-.378 1.685v11.289c0 .826.512 1.303-.794 1.143-.951-.117-1.764.16-3.281.16-2.909 0-6.38-1.861-8.58-4.797-.352-.466-.791-.437-1.048-.437zm-1.854-5.143c-.705-2.176-1.117-4.678-1.117-7.492 0-6.792 3.25-11.736 8.008-13.68.44-.18.686-.671.927-.728.24-.056.344.049.52.346.175.294.862 1.003 2.025 1.831 0 0 4.52 3.209 5.72 4.117.551.419 1.585.846 2.009.941.249.054 1.013.104-.116.552-.334.148-.739.415-1.11.745l-16.025 14.491c-1.233 1.017-.631-.477-.84-1.123zm24.014-8.887c-.789-.042-1.952-.428-2.82-.83-.844-.392-1.55-.599-2.072-.628-.396-.021-.46-.026-.548-.084-.184-.123.106-.35.814-.95 4.42-3.866 5.861-4.694 7.464-5.103.775-.198.798-.506.739-.766-.049-.213-.772-.364-.772-.364-4.815-1.195-14.311-8.898-14.311-8.898-.531-.299-1.063-1.528-1.063-1.528-.797-1.561-.996.134-.996.134-.716 2.359-2.372 3.367-4.084 3.894-5.27 1.621-15.34 6.8-15.34 19.043 0 11.176 8.945 18.742 17.386 18.742 3.814 0 6.885-.894 8.859-1.522.486-.154 1.125-.395 1.976-.395.782 0 1.311.285 2.575.98.357.196 1.139.761 1.409.629.251-.123.223-.548.108-.906-.254-.791-.537-1.594-.537-3.412v-15.008c-.017-1.029 1.594-2.258 1.594-2.258.514-.449.226-.74-.38-.772z" fill="#fff"/></svg>