<svg preserveAspectRatio="none" width="154" height="154" viewBox="0 0 154 154" xmlns="http://www.w3.org/2000/svg"><title>gs2</title><desc>Created with Sketch.</desc><path d="M73.466 50.105c-.733.215-1.535.27-1.994.138-.394-.112-.363-.825.017-.999.459.178 1.047.078 1.379-.229-.103-.208-.639-.571-.829-.588-.162-.015-.156-.069-.048-.199.037-.046.142-.156.298-.156.692 0 1.722.337 2.383 1.339-.216.443-.599.752-1.207.694zm-10.52 11.205c-.062-.507-.199-1.358-.303-1.798 1.69.366 3.539.689 5.439.966-.962 2.013-3.899 1.273-5.136.832zm21.014-7.671c-.248-.131-.462-.277-.643-.394-.194-.125-.368-.411-.43-.613-.055-.185.064-.476.247-.657.858-.85 1.698-2.307 2.08-4.013-1.097-.079-3.388-.397-4.722-.557-.359-.043-.568-.043-.922-.001-.668.081-1.903.033-3.055-.408-2.619-1-4.82-.671-6.324-.286-1.754-.338-3.494-.696-4.063-.696-1.879 0-3.675 3.715-3.675 5.344 0 1.301.616 2.025 1.262 2.516-.16.858-.362 1.666-.121 1.789.266.136 1.132-.43 1.886-.895.698.305 1.54.681 2.271.949.28.102.576.258.576.558 0 .426-2.808.959-5.957.88-3.438-.086-6.439-1.466-6.439-2.612 0-1.204 2.208-1.377 3.632-1.263-.868-.955-2.355-1.63-4.079-1.63-1.723 0-3.399 1.106-3.399 2.263 0 1.589 2.676 3.206 6.433 4.493 1.085.372 2.369.713 3.766 1.025-.311.352-.808 1.041-1.123 1.416-1.33-.538-2.011-.062-2.276.619-.234.598-.757 2.078-1.068 3.411 2.317-.227 3.642.147 5.419 1.049 1.523.772 3.238.85 5.244.237l.081-.021c3.951-.781 5.176-1.916 5.985-2.667l.135-.102c1.951-1.178 3.297-2.254 4.647-3.714.12-.129.279-.218.453-.251 3.089-.591 6.772-1.683 6.772-3.53 0-.87-1.624-1.728-2.594-2.24zm-26.241 48.793c-1.775 1.436-5.647 3.376-6.635 3.844-1.025.486-2.166 1.099-3.434 1.988-1.268.891-2.899 1.715-4.101 2.2-.5.202-.5.423-.428.8.071.368.683 1.572.89 1.798.472.513.992 1.133 1.09 1.74.097.607.08 1.438.08 2.121 0 1.396.868 1.69 1.974 2.276-.658.993-2.035 1.325-2.993.679-.598-.402-1.041-1.337-1.222-2.587-.599.527-.765 1.355-.461 2.508.197.745.745 1.326 1.242 1.79-1.552.469-3.281.087-3.879-.849-.485-.759-.502-1.874-.321-3.176-.707.388-1.132.995-1.207 1.899-.068.815.14 1.515.373 2.146-2.016-.059-2.983-1.451-2.946-3.084.028-1.27.862-2.309 1.672-3.421-.184-1.057-.816-2.864-1.198-3.525-.554-.957-.733-1.197-.733-2.497 0-1.655 1.243-3.323 1.865-3.655.622-.331 1.292-1.078 1.59-1.474.297-.396.749-.941 1.284-1.238.971-.539 3.139-3.02 4.211-4.184 1.028-1.118 2.045-2.665 2.695-3.379.673.707 1.123 1.367 1.291 1.928.214.714.576 1.58.847 1.784.17.127.998.387 1.61.416.558.026.905.257 1.277.852.22.353.517.694.729.888.289.265 1.692.455 2.386.438.939-.024 1.565.347 2.453.975zm25.633 15.346c-.453.361-1.193.726-2.031.713-1.12-.017-1.999.649-2.24 1.913-.493 2.583-.43 4.91-.224 7.239.041.46.18 1.107.278 1.332.16.373.216 1.233-.683 1.405-2.242.43-5.879 1.953-6.903 2.578-.919.288-1.581.814-2.218 1.632-.462.594-.687 1.552-.566 2.214-.81.285-1.836-.035-2.381-.414-.995-.692-.995-2.138.347-3.628-.408-.244-.974-.19-1.466.233-.482.413-1.102 1.278-.968 2.477-1.057.04-2.582-.963-2.414-2.427.151-1.32.97-1.766 1.324-1.986-.542-.299-.936-.304-1.488.074-.483.332-1.013.75-1.232 1.534-.607-.339-1.383-.955-1.383-2.314 0-1.474 1.315-2.767 3.018-2.93 1.016-.097 2.579.272 3.383.666.093.051.327.016.403-.015 1.005-.354 3.122-1.08 4.198-1.361.116-.03.211-.135.203-.248-.093-2.176-.984-4.647-1.568-5.527-.602-.907-1.441-2.07-1.879-3.493-.509-1.652-.799-2.87-1.08-4.412-.091-.495-.193-1.06.184-1.669.601-.972 1.311-2.268 1.772-2.937.264-.384.573-.231.814-.055l.013.002c1.145.639 2.57 1.195 4.269 1.659 1.574.429 3.842.855 6.272 1.144.366 1.159 1.487 4.005 4.249 6.6zm-18.009-14.119l.38-.122c1.855-.649 4.999-1.34 8.286-1.098 1.91.14 3.434-.166 5.096-1.104 1.843-1.039 4.335-1.842 5.568-1.488.724.208 1.452.475 1.842.659.918.432 1.027-.553 1.833-2.333 1.014-2.239 1.355-4.433 1.054-6.7-.092-.701-.192-1.236-.273-1.667-.054-.29-.096-.521-.125-.73 2.64 1.378 5.867 3.245 6.85 3.839 1.112.674 1.849 1.044 2.406 2.217.1.211.248.345.481.536 1.304 1.066 2.853 2.895 3.658 5.174.077.218.141.466.398.907.256.441.583 1.353.941 2.525.154.504.194.774 1.32 1.182 3.378 1.223 8.478 2.766 11.765 2.766 4.252 0 5.249-3.428 5.249-4.531 0-2.481-1.142-4.233-4.386-6.474-3.244-2.24-7.887-4.98-10.712-8.307-3.39-3.993-4.695-7.567-4.695-11.658 0-5.573 4.663-9.732 8.792-8.964 1.583-1.286 3.772-1.841 5.685-1.841 2.964 0 5.929 1.624 7.719 4.226.301.437.224.787-.366.501-1.115-.54-2.78-.967-3.85-.847-.811.091-1.096.299-.651.683 1.312 1.134 2.893 2.589 3.637 4.298.124.285.222.407-.247.344-1.866-.251-3.388-.839-5.474-1.977-.19-.103-.203.143-.186.429.072 1.172.867 2.682 2.809 3.279.113.035.096.105-.015.215-.538.53-2.01.414-3.041.08-1.704-.549-5.094-2.177-6.404-6.193-.055-.171-.685-.124-.95-.124-1.893 0-4.445 1.796-4.445 6.261 0 4.332 2.036 8.491 5.06 11.123 2.966 2.582 7.013 4.788 10.063 7.088 3.051 2.3 4.688 4.966 4.688 8.182 0 4.458-4.258 7.226-8.51 7.226-4.315 0-7.97-.774-12.038-1.776-.254-.056-.336.104-.348.267-.061 1.213-.368 2.336-.612 3.187-.267.933-.226 1.958.268 2.898.493.939 1.385 2.011 1.965 2.447.369.278.71.83.814 1.179.034.117.087.15.153.229.662.788.76 1.754.239 2.832-.652 1.345-1.552 3.464-1.69 5.722-.473 2.252-.223 5.123-.01 6.338.094.542-.111.827-.76.971-2.463.544-3.798.939-5.16 1.863-1.135.77-2.461 2.086-2.783 2.482-.422.517-1.453 1.188-2.43 1.188-.928 0-1.73-.298-2.762-.666.47-.55.754-.965 1.025-1.369.25-.372.562-.825.798-1.335-.681-.034-1.346.188-1.784.5-.631.449-.974.853-1.129 1.448-1.23-.403-1.932-.755-1.817-1.694.095-.776 1.109-1.365 1.662-1.788-.603-.198-1.402-.116-1.922.233-.577.388-.96.774-1.115 1.507-.237-.173-.451-.371-.611-.597-.247-.349-.36-.795-.272-1.449.179-1.336 1.779-2.491 3.625-2.491.86 0 1.336.19 2.391.858.094.077.238.078.324.036.823-.406 2.701-1.124 3.887-1.568.102-.04.158-.154.147-.258-.17-1.48-.518-4.51-.575-5.861-.045-1.041.024-2.565 0-3.849-.009-.46-.214-.956-.805-1.09-1.033-.236-1.975-.493-2.987-.967-.127-.136-.299-.233-.498-.259-1.16-.148-1.965-.543-2.61-1.284-1.74-1.999-3.178-5.558-3.419-8.465-.039-.658-.134-.788-.826-.76h-.007c-4.125.031-9.009-.704-11.741-1.448-2.253-.614-3.89-1.379-4.994-2.273-.059-.047-.289-.197-.357-.226-.262-.115-.645-.366-1.056-.604-.499-.289-.964-.629-1.22-1.081-.081-.13-.183-.407-.211-.605zm20.729 14.212c-3.114-2.212-4.549-4.975-5.146-6.506 1.126.097 2.258.16 3.348.174.287 2.073 1.047 4.309 2.065 6.191.154.29-.131.241-.267.141zm-48.904-51.983c.07-1.448 1.31-2.241 2.161-2.23 1.103.015 1.948.709 2.557 1.582.678-1.135-.427-2.331-2.144-2.697 1.258-2.344 3.932-.997 4.622.014.78-1.132-1.119-2.377-2.955-2.188.399-1.154 2.391-2.463 4.489-1.323.901.153 3.124 1.584 1.588 5.175.141.436.388 2.175.368 2.816 1.611.814 3.531 2.329 4.037 2.939.089.087.476.304.815.491 1.366.999 2.115 1.942 2.053 2.591-.055.572-.637 1.116-1.199 1.642-.242.227-.472.441-.671.669-.494.562-1.012 1.271-1.559 2.021l-.664.902c-.637.85-1.961 2.21-3.592 3.246-.734.466-1.576.931-2.419 1.348-.029-1.096.047-2.359.092-2.81.059-.597.148-1.448-.035-2.172-.183-.724-.162-1-.175-1.378-.013-2.586-1.86-3.539-4.448-4.417-.769-.26-.698-1.121-.468-1.852.23-.73.138-2.009-.231-3.21-.353-1.144-.995-.974-2.217-1.16zm51.358-18.59c1.655 0 3.604 1.095 4.798 4.489.096.273.3 1.016.634 1.518.583.875.855 1.522.167 2.867s-1.356 2.637-1.498 3.494c-.142.857.012 1.936.036 2.414.045.93-.355 2.026-.641 3.066-.303 1.104-.691 2.433-.771 3.286-.043.464-.329 2.019-.558 2.941-.213.849-.348 2.008-.253 2.91.124 1.175-.631 3.204-1.318 5.568-.279.96-1.194 3.587-1.225 4.326-.055 1.343-.411 3.399-.473 3.938-.074.688.028 1.247.165 1.984.081.432.172.923.26 1.58.262 1.979-.031 3.822-.922 5.802-.361.802-.521 1.102-.874.991-.173-.054-.419-.128-.748-.216-2.605-.698-6.479 1.374-6.924 1.625-1.369.771-2.568 1.032-4.142.896-3.683-.313-7.289.587-9.427 1.371-.713.262-1.501.633-1.677.693-.051.017-.411.072-.914-.022-.557-.104-1.697-.453-2.298-.858-.326-.22-.62-.43-.894-.627-1.173-.842-2.229-1.614-3.846-1.578-.633.014-.998-.051-1.148-.076-.15-.025-.415-.328-.478-.423-.62-.922-1.141-1.563-2.607-1.63-.166-.008-.524-.08-.6-.21-.069-.118-.22-.388-.346-.808-.381-1.273-1.494-2.521-2.689-3.56-2.273-2.036-1.828-3.683-1.059-5.161-.479-.87-1.194-1.701-1.495-2.658-.041-.129-.173-.449.115-.604 1.06-.501 2.143-1.088 3.083-1.685 1.818-1.154 3.274-2.642 4.03-3.65l.676-.919c.525-.719 1.021-1.398 1.466-1.904.147-.167.347-.354.559-.554.714-.667 1.601-1.498 1.716-2.694.111-1.15-.554-2.399-2.082-3.512.666-.509 1.891-1.482 2.094-1.689.166-.17 1.012-1.08 1.879-1.517 1.859-.136 2.836.216 4.19.903 1.09.553 2.242.828 3.479.828.934 0 1.918-.158 2.958-.472 3.968-.79 5.546-1.963 6.688-3.012 1.965-1.194 3.363-2.301 4.747-3.764 2.678-.53 5.135-1.313 6.325-2.325 1.183-1.006 1.597-1.855 1.597-2.837 0-1.327-1.621-2.412-3.261-3.498.898-1.19 1.648-2.841 1.935-4.686.319-.317.894-.342 1.571-.342zm-8.269-25.482l.867 3.054c.211.745-.131.986-.761.537l-2.584-1.843-2.637 1.767c-.643.431-.978.18-.745-.558l.955-3.027-2.496-1.961c-.608-.478-.473-.875.301-.882l3.174-.027 1.094-2.98c.267-.726.686-.72.931.014l1.007 3.01 3.172.12c.774.029.897.43.275.89l-2.552 1.888zm51.973 57.506l-3.039.918c-.741.224-.988-.115-.549-.752l1.8-2.614-1.812-2.606c-.442-.636-.197-.975.545-.755l3.043.904 1.919-2.529c.468-.617.867-.488.886.286l.081 3.173 2.998 1.044c.731.255.732.674.002.932l-2.993 1.058-.066 3.173c-.016.774-.415.904-.885.29l-1.93-2.52zm-110.464-4.579l3.037-.921c.74-.224.988.114.55.752l-1.797 2.616 1.815 2.604c.443.635.197.975-.545.756l-3.044-.9-1.916 2.531c-.467.617-.866.489-.887-.285l-.085-3.173-2.999-1.04c-.731-.253-.733-.672-.003-.931l2.991-1.061.062-3.174c.015-.774.413-.905.885-.291l1.934 2.518zm24.492-46.801l3.033 5.208c.519.865.912 1.192 1.824 1.029.417-.075.67-.002.193.268l-4.479 2.532c-.672.38-.28-.173-.186-.329.468-.775.335-1.314-.017-1.906-.993-2.053-1.692-3.356-2.896-5.293-.585-.976-.987-1.087-1.521-1.136-.535-.051-.915.195-1.365.52-.411.292-.751.131-.393-.41.554-.836 1.335-2.494 1.461-3.095.077-.367-.048-.773.571-.43.792.438 1.402.69 2.207.929.413.122.442.002.748-.485.768-1.223 1.26-2.447 1.694-3.776.047-.144.071-.397.392-.212.815.467 2.373.895 2.992.999.701.117.81.249 1.174.993.326.666 2.007 3.57 3.08 5.309.256.365.79.816 1.184.658.484-.194.897-.454 1.216-.733.279-.244.446-.052.191.388-.363.625-1.41 2.689-1.73 3.544-.107.285-.15.3-.392.229-.595-.156-.983-.268-1.548-.488-.37-.144-.463-.31-.744-.811-.4-.714-3.326-5.69-3.326-5.69-.441-.75-.717-.685-.954-.754-.237-.07-.644-.264-.805-.391-.161-.127-.209-.09-.278.157-.197.711-.952 2.094-1.292 2.582-.137.196-.15.382-.032.592zm18.402-3.738l-1.096 1.457c-.299.382-.436.696-.478.799-.058.145-.118.283-.5.114-1.549-.653-2.699-1.995-3.07-3.635-.371-1.64.092-3.347 1.21-4.602.096-.131.241-.206.33-.093.108.136.271.253.705.513l1.983 1.189c.214.147.272.222.342.533l.694 3.062c.051.227.065.415-.122.662zm-4.079-8.483c-.35.762-1.031 1.392-1.651 2.008-1.609 1.596-2.537 3.517-2.482 5.651.057 2.198 1.413 4.095 3.306 5.212l2.875 1.7c.172.097.275.18.43-.066l1.929-3.047c.123-.197.29-.391.39-.366.11.027.171.252.199.362.15.582.26.838.845 1.051.585.213 1.095.537 1.537 1.024.061.067.152.194.206-.027.276-1.127 1.192-2.346 2.146-3.1.233-.178.114-.273-.156-.258-.206.011-.611.032-1.119-.146-.616-.24-.711-.411-.988-1.556l-2.752-11.918c-.042-.173.002-.355.12-.49l.598-.631c.112-.118.071-.181-.089-.14l-4.767 1.123c-.171.039-.166.132.005.217l.681.341c.324.157.511.344.605.782l.811 3.428c.093.388.076.578-.457.312-.467-.233-1.214-.616-1.638-1.146-.229-.286-.409-.661-.585-.319zm34.342 14.472l1.819-.862c1.263-.595 1.143-1.379.2-2.813l-5.284-7.862c-.416-.655-.584-1.415-.395-2.008.578-1.674 2.536-2.122 4.245-2.242 1.826-.128 3.691-.213 4.771-1.145.453 2.389 1.978 4.391 4.189 5.245.235.091.536.166.168.269-1.207.303-3.087 1.065-4.265 1.691-.148.079-.227.01-.243-.138-.246-1.526-1.482-3.211-2.175-4.131-.068-.09-.108-.078-.178-.036-.124.072-.345.105-.389.11l-1.672.175c-.944.104-1.088.809-.55 1.571l6.081 8.616c.352.504.695 1.11.76 1.798.069.741-.404 1.443-1.589 1.912-2.418.859-4.767 1.901-7.027 3.119-1.058-1.992-2.462-3.778-4.149-5.275-1.063-1.238-2.681-1.612-3.96-1.777-.428-.055-1.254-.172.274-.44s3.912-.974 5.344-1.501c.13-.048.182-.051.132.104-.237.679-.241.913.462 1.603.596.585 2.339 2.35 2.918 3.178.135.192.348.555.369.735.006.048.016.167.146.106zm15.739 1.813s-3.638-.142-4.04-.162c-.587-.029-.253-.26-.134-.515.743-1.592 2.047-2.439 3.798-2.641.244-.028.513-.026.609-.082.095-.057.148.009.12.13-.034.143-.072.42.053 1.549.126 1.129.165 1.477.299 1.602.09.084.146.173-.036.158l-.669-.039zm-4.289 1.529c.338.029 8.181.393 8.181.393.761.056.382-.287.382-.287-.35-.28-.62-1.685-.993-3.473-.281-1.349-.493-2.877-.385-3.255.109-.379-.292-.279-.637-.194-.349.086-.846.155-1.952.199-2.706.105-5.14.482-6.642 2.299-2.889 3.495-1.062 6.829-.077 8.203.303.424.332.914.192 1.188-.128.25-.143.328.425.199 1.256-.287 4.97-.203 4.97-.203 1.475.112.876-.161.281-.446-1.878-.9-3.058-2.802-3.387-3.379-.12-.21-.417-.801-.491-.904-.148-.205-.18-.366.133-.339zm20.74 29.983c-.682-.479-.948-.481-.665-.71.185-.15.397-.579.6-1.086.221-.549.961-2.444 2.061-3.081.749-.434 2.605-.933 4.296.151.328.21.693.443.875.54.3.159.287.201.169.376-.118.174-.22.362-.397.971-.275.937-.951 2.879-2.164 3.628-1.84 1.137-4.424-.541-4.776-.789zm4.62 3.351c2.813-.66 3.774-3.135 4.58-4.46.952-1.564 1.677-2.805 1.915-3.004.543-.455.497-.57-.241-.694s-1.953-.576-3.016-1.27c-2.262-1.476-3.534-1.598-5.033-1.437-4.51.485-5.823 4.659-5.823 4.659-.309 1.134-1.06 2.703-1.06 2.703-.111.149-.172.268-.29.352-.747.525.512.583.512.583 1.288.179 2.665 1.069 2.665 1.069 2.849 2.471 5.791 1.498 5.791 1.498zm-9.274-9.426c-.267-.161-2.538-1.565-2.839-1.741-.884-.518-.682-.487-.156-.623.555-.143.966-.965 1.225-1.495.231-.473 1.578-3.253 1.967-4.045.389-.793-.539-2.287-1.346-1.773-.737.469-1.322.816-1.804 1.123-.691.44-1.743 1.29-1.606 2.522.135 1.214-.348.083-.627-.355-.149-.234-2.237-3.481-2.454-3.833-.246-.397-.307-.591.06-.397.658.348 1.547.644 2.318.154.39-.249 10.117-6.35 10.696-6.719.679-.432.862-1.179.745-1.736-.081-.39.007-.463.238-.099l2.392 3.764c.435.682.285.618-.103.363-.415-.272-.995-.363-1.646.052-.535.341-5.485 3.443-5.485 3.443s-.632.294-.288.739c0 0 1.539 1.826 2.635 1.969 0 0 1.815.745 1.371-1.57 0 0-.218-.848-.715-1.486 0 0-.196-.415.537-.044 0 0 2.331.774 3.011.493 0 0 .449.009.288.652 0 0-.074 1.53-.208 2.449-.217 1.482-.983 2.254-1.959 2.614-1.095.403-2.33.088-3.5-.832-.255-.2-.53-.437-.495.068.026.384-.101.777-.234 1.066 0 0-.536 1.297-1.032 2.521-.597 1.472-.567 1.869-.159 2.855.311.751-.147.31-.827-.101zm-9.259-12.04l-3.293-3.581c-.427-.463-.31-.494.289-.245.345.143 1.348.32 1.787-.084l6.325-5.747s.679-.487.283-1.055c0 0-.324-.463-.607-.828-.226-.291-.077-.392.209-.241.951.504 2.046.678 3.014.562.201-.024.426-.181.406.458 0 0 .081 1.601.181 2.041.099.44.005.566-.245.567-.258.002-.623-.03-1.091.401l-6.075 5.507s-.717.584-.796.93c-.078.346-.077.762.024 1.195.117.5.044.612-.409.121zm8.67-14.618c.696.308 1.535.437 2.112.444.566.008.936-.253.704.654-.258 1.007-.09 2.325-.033 2.75.068.509.128 1.006-.844-.139 0 0-2.654-2.951-2.865-3.324-.258-.454-.039-.812.926-.385zm-98.282 27.342c.238-.202.447-.394.765-.823.116-.191.158-.177.417-.087l4.779 1.652c.403.139.752.17.837.677.142.86.048 1.703-.183 2.374-.505 1.466-1.754 2.48-3.347 3.005-.321.114-.346.282-.559-.166l-2.754-6.14c-.074-.191-.144-.32.043-.492zm-3.536-2.319l4.006 9.174c.208.477-.085.359-.35.348-.995-.041-2.018-.23-3.009-.571-2.607-.898-4.434-2.511-4.461-6.385.005-.271-.12-.452.142-.643l3.42-2.499c.153-.115.058.132.252.575zm2.263-.583c-.073.076-.162.054-.208-.006-.857-1.562-1.332-3.638-1.291-4.28.032-.498-.038-.635-.177-.679-.122-.039-.199.091-.415.386-1.281 1.758-4.135 3.943-6.27 5.12-.265.147-.503.189-.685.209-.494.053-.206.299-.097.388.777.631 1.128 1.654 1.04 2.657-.006 2.569.882 5.063 2.513 7.05 2.64 2.883 6.839 3.732 10.392 2.103 3.554-1.629 5.215-4.747 5.154-9.131.003-.28-.083-.498.166-.761.478-.508 1.119-1.207 1.581-1.668.051-.051.109-.128.059-.203-.04-.06-.19-.073-.26-.054-.636.174-1.064.274-1.733.071-2.238-.695-4.335-1.388-6.518-2.212-1.122-.424-1.172-.671-1.352-1.069-.146-.325-.327-.233-.461.059-.33.72-.98 1.54-1.44 2.019zm6.869-11.941c-.457-.266-.608-.233-1.133-.087-.233.065-.177.274-.159.416l.233 2.055c.059.432.304.717.623.906l4.904 2.756c.527.284.677.309 1.044.106.498-.275.896-.547 1.185-.76.303-.224.529-.279.322.106l-3.048 5.342c-.307.552-.405.306-.372-.071.023-.275.068-.85.052-1.274-.017-.451-.125-.53-.706-.871l-5.631-3.319c-1.448-.815-1.81-.374-2.61.178-.466.321-.877.851-1.026 1.026-.205.242-.478.389-.389-.155.089-.544.174-2.616-.029-3.421-.035-.14-.129-.396.262-.466.355-.065 1.123-.316 1.49-.479.367-.164.755-.36.911-.457.298-.187.55-.158.762-.098.141.042.41.067.423-.291.03-.834-.276-2.53-.495-3.06-.089-.214-.083-.346.181-.416.909-.239 1.959-.431 2.154-1.397.054-.268.2-.443.311-.052l.962 3.568c.072.255.044.369-.218.217zm9.122-6.658l1.009.975c.124.121.249.305.216.568-.171 1.363-.364 2.594-.786 3.9-.134.413-.594.44-.834.444-1.188.01-2.185-.894-2.29-2.079-.093-.849.385-1.802 1.086-2.706.551-.71 1.021-1.056 1.146-1.149.321-.24.281-.121.454.046zm-6.177-4.131l-1.031 5.182c-.11.671-.076.984.432-.059.757-1.556 2.061-2.851 3.646-3.394.391-.134.542-.097.814.166l.535.517c.185.178.009.305-.121.41-1.317 1.065-2.289 2.627-2.798 4.299-.624 1.87-.075 3.932 1.396 5.244 1.242 1.101 2.813 1.083 4.034.383.67-.384 1.251-.281 1.465-.206.107.038.265-.044.198-.205-.067-.161-.106-.237-.106-.396-.003-1.527.319-3.135.687-4.37.068-.214.18-.311.514.028l.218.21c.17.167.281.204.484.139.523-.167 1.33-.215 1.913-.094.154.032.392.049.331-.271-.256-.939-.155-2.283.298-3.322.045-.103.091-.249.008-.296-.09-.05-.309.142-.379.205-.691.541-1.423.537-1.998.014l-5.195-4.99c-.42-.406-.962-.666-1.602-.357-.587.284-1.724.775-2.146.952-.442.185-.807.278-1.28-.017-.177-.11-.275.004-.319.228zm44.869 116.033c-39.504 0-71.528-32.025-71.528-71.528 0-39.504 32.024-71.528 71.528-71.528 39.503 0 71.528 32.024 71.528 71.528 0 39.504-32.025 71.528-71.528 71.528zm0-148.528c-42.526 0-77 34.474-77 77s34.474 77 77 77 77-34.474 77-77-34.474-77-77-77z" fill="#fff"/></svg>